<svg xmlns="http://www.w3.org/2000/svg" viewBox="0 0 32 21.12"><defs><style>.cls-1{fill:#fff;}</style></defs><g id="Layer_2" data-name="Layer 2"><g id="Layer_1-2" data-name="Layer 1"><path class="cls-1" d="M12.91,9.44s3-.23,3-3.93S13.46,0,10.33,0H0V20.68H10.33s6.3.21,6.3-6.1C16.63,14.58,16.9,9.44,12.91,9.44ZM4.55,3.67h5.78s1.4,0,1.4,2.16S10.9,8.29,10,8.29H4.55ZM10,17H4.55V11.48h5.78s2.09,0,2.09,2.84C12.42,16.74,10.86,17,10,17ZM25,5.26c-7.63,0-7.63,8-7.63,8s-.52,7.9,7.63,7.9c0,0,6.79.41,6.79-5.5H28.34s.11,2.23-3.19,2.23a3.27,3.27,0,0,1-3.49-3.6H32S33.07,5.26,25,5.26Zm3.1,6.22H21.62s.43-3.19,3.5-3.19S28.14,11.48,28.14,11.48ZM29,1.22H20.77V3.76H29V1.22Z"/></g></g></svg>