<svg xmlns="http://www.w3.org/2000/svg" viewBox="0 0 32 32"><defs><style>.cls-1{fill:#fff;}</style></defs><g id="Layer_2" data-name="Layer 2"><g id="Layer_1-2" data-name="Layer 1"><path class="cls-1" d="M16,32A16,16,0,1,1,32,16,16,16,0,0,1,16,32ZM29.49,18.19A19.94,19.94,0,0,0,21,17.61a58.94,58.94,0,0,1,2.66,9.74A13.7,13.7,0,0,0,29.49,18.19ZM21.34,28.6a56.42,56.42,0,0,0-2.92-10.36l-.09,0C10.62,21,7.86,26.3,7.61,26.8a13.62,13.62,0,0,0,13.73,1.8ZM5.85,25.16c.31-.53,4.06-6.74,11.11-9l.53-.16c-.34-.78-.71-1.56-1.1-2.32a50.13,50.13,0,0,1-14,1.94c0,.14,0,.28,0,.42A13.58,13.58,0,0,0,5.85,25.16ZM2.62,13.22a51.22,51.22,0,0,0,12.64-1.66,89.07,89.07,0,0,0-5.07-7.91A13.75,13.75,0,0,0,2.62,13.22ZM12.8,2.73a73.56,73.56,0,0,1,5.1,8A15.44,15.44,0,0,0,25.06,5.8,13.62,13.62,0,0,0,16,2.35,14.08,14.08,0,0,0,12.8,2.73ZM26.58,7.38A18.3,18.3,0,0,1,19,12.77q.48,1,.9,2l.3.7a32.14,32.14,0,0,1,9.51.44A13.61,13.61,0,0,0,26.58,7.38Z"/></g></g></svg>