<svg xmlns="http://www.w3.org/2000/svg" viewBox="0 0 32 32"><defs><style>.cls-1{fill:#fff;}</style></defs><g id="Layer_2" data-name="Layer 2"><g id="Layer_1-2" data-name="Layer 1"><path class="cls-1" d="M29.33,16a12.94,12.94,0,0,0-1.06-5.18,13.71,13.71,0,0,0-2.84-4.25,13.71,13.71,0,0,0-4.25-2.84,13.19,13.19,0,0,0-10.36,0A13.71,13.71,0,0,0,6.57,6.57a13.71,13.71,0,0,0-2.84,4.25A13.26,13.26,0,0,0,5.26,23.89,13,13,0,0,0,12,28.71V25.19c-.75.09-1.23.14-1.44.14a3.18,3.18,0,0,1-3.18-2.08,4.43,4.43,0,0,0-.76-1.31,2.54,2.54,0,0,0-.43-.4l-.6-.5c-.17-.15-.26-.26-.26-.33s.2-.25.59-.25a1.94,1.94,0,0,1,1.07.3,3.07,3.07,0,0,1,.79.73l.66.86a2.73,2.73,0,0,0,.84.74,2.28,2.28,0,0,0,1.18.31,4.9,4.9,0,0,0,1.69-.3,3.2,3.2,0,0,1,1.31-1.85,9.23,9.23,0,0,1-5.13-1.74Q6.66,18.1,6.67,14.83a5.85,5.85,0,0,1,1.52-4.12A5.4,5.4,0,0,1,7.9,9a4.71,4.71,0,0,1,.56-2.27,5.14,5.14,0,0,1,2.1.4,12.1,12.1,0,0,1,2.11,1.26A15.28,15.28,0,0,1,16.19,8a15.07,15.07,0,0,1,3.19.33,13,13,0,0,1,2.09-1.23,5.16,5.16,0,0,1,2.07-.39A4.71,4.71,0,0,1,24.1,9a5.07,5.07,0,0,1-.29,1.73,6,6,0,0,1,1.52,4.14q0,3.27-1.66,4.7a9.06,9.06,0,0,1-5.11,1.74A3.11,3.11,0,0,1,20,24v4.71a13,13,0,0,0,6.74-4.82A13,13,0,0,0,29.33,16ZM32,16a15.66,15.66,0,0,1-2.15,8A15.92,15.92,0,0,1,24,29.85,15.66,15.66,0,0,1,16,32a15.66,15.66,0,0,1-8-2.15A15.92,15.92,0,0,1,2.15,24,15.66,15.66,0,0,1,0,16,15.66,15.66,0,0,1,2.15,8,15.92,15.92,0,0,1,8,2.15,15.66,15.66,0,0,1,16,0a15.66,15.66,0,0,1,8,2.15A15.92,15.92,0,0,1,29.85,8,15.66,15.66,0,0,1,32,16Z"/></g></g></svg>