<svg xmlns="http://www.w3.org/2000/svg" viewBox="0 0 32 32"><defs><style>.cls-1{fill:#fff;fill-rule:evenodd;}</style></defs><g id="Layer_2" data-name="Layer 2"><g id="Layer_1-2" data-name="Layer 1"><path class="cls-1" d="M18.3,14.06v0l0,0ZM29,0H3.05A3,3,0,0,0,0,3.05V29A3,3,0,0,0,3.05,32H29A3,3,0,0,0,32,29V3.05A3,3,0,0,0,29,0ZM8.15,6.1a2.2,2.2,0,0,1,2.26,2.31,2.21,2.21,0,0,1-2.29,2.31h0A2.19,2.19,0,0,1,5.86,8.41,2.2,2.2,0,0,1,8.15,6.1Zm2.52,19.84H6.09V12.17h4.58Zm16.74,0h-4.5V18.75c0-1.81-.51-3-2.15-3a2.5,2.5,0,0,0-2.32,1.63,3.28,3.28,0,0,0-.14,1.09v7.51H13.65s.06-12.56,0-13.82H18.3V14a4.5,4.5,0,0,1,4.07-2.22c3,0,5,2.31,5,6.43Z"/></g></g></svg>